<svg id="Layer_1" data-name="Layer 1" xmlns="http://www.w3.org/2000/svg" viewBox="0 0 269 82"><defs><style>.cls-1{fill:#fff;}.cls-2{fill:#ee3124;}</style></defs><title>adobe_logo</title><rect width="269" height="82"/><path class="cls-1" d="M173.73,127l-2.57,11.5h-9.49l11.84-47.83h11.63l10.76,47.83h-9.54L183.83,127Zm9.19-6.74-2-10.37c-.56-3-1.29-7.65-1.84-10.88h-.21c-.59,3.25-1.39,8.06-2,10.9l-2.12,10.35Z" transform="translate(-69.5 -65.5)"/><path class="cls-1" d="M227.23,89.4v39.19c0,3.11.18,6.93.32,9.92h-8.41l-.55-4h-.2a9.52,9.52,0,0,1-8.16,4.56c-8.06,0-12.05-7.87-12.05-17.81,0-12.1,6-18,12.45-18,3.39,0,5.59,1.47,6.7,3.6h.16V89.4Zm-9.74,27.74a10.36,10.36,0,0,0-.14-2.06c-.37-2.36-1.8-4.49-4.08-4.49-3.92,0-5.35,5-5.35,10.84,0,6.72,2.05,10.54,5.21,10.54,1.45,0,3.12-.67,4-3.48a6.33,6.33,0,0,0,.33-2.19Z" transform="translate(-69.5 -65.5)"/><path class="cls-1" d="M247.33,139.07c-9,0-14.61-6.39-14.61-17.81,0-12.45,7.23-18,14.83-18,8.85,0,14.41,6.69,14.41,17.8,0,14.27-8.7,18-14.56,18Zm.18-6.62c3.72,0,4.64-6.2,4.64-11.34,0-4.88-.92-11.24-4.8-11.24-4.11,0-5,6.36-5,11.24,0,5.89,1.09,11.34,5.06,11.34Z" transform="translate(-69.5 -65.5)"/><path class="cls-1" d="M267.41,89.4h9.74v18.07h.16a9.42,9.42,0,0,1,8.19-4.2c7.35,0,11,7.39,11,17,0,12.21-5.5,18.76-12.62,18.76-3.41,0-5.67-1.34-7.7-4.72H276l-.55,4.15h-8.36c.14-2.88.32-6.81.32-9.92Zm9.74,36.73a6.34,6.34,0,0,0,.39,2.21c1,2.91,2.64,3.62,4,3.62,3.75,0,5.29-4.23,5.29-11,0-6.14-1.6-10.39-5.33-10.39-1.85,0-3.4,1.78-3.93,3.68a8.16,8.16,0,0,0-.37,2.18Z" transform="translate(-69.5 -65.5)"/><path class="cls-1" d="M310,124c.12,6.26,3.84,8.3,8.45,8.3a22.8,22.8,0,0,0,7.31-1.2l1.31,6.21a31.76,31.76,0,0,1-10.39,1.61c-10.46,0-16.17-6.32-16.17-17.11,0-11.59,6.63-18.55,15.27-18.55,8.35,0,13,6.14,13,16.2a27.89,27.89,0,0,1-.28,4.59Zm9.81-6.1c0-4.86-1.56-8.28-4.65-8.28-3.52,0-5,4.58-5.14,8.28Z" transform="translate(-69.5 -65.5)"/><polygon class="cls-2" points="54.96 9 82.03 9 82.03 73.57 54.96 9"/><polygon class="cls-2" points="35.89 9 8.8 9 8.8 73.57 35.89 9"/><polygon class="cls-2" points="45.43 32.8 62.67 73.57 51.37 73.57 46.21 60.58 33.59 60.58 45.43 32.8"/><path class="cls-1" d="M158.25,74.37a3.43,3.43,0,0,1,0,6.86,3.43,3.43,0,1,1,0-6.86Zm0,.58A2.85,2.85,0,1,0,161,77.8,2.79,2.79,0,0,0,158.24,75Zm-.63,4.84h-.69V76a7,7,0,0,1,1.15-.11,2,2,0,0,1,1.24.31,1,1,0,0,1,.34.79.92.92,0,0,1-.73.91v0c.34.06.55.37.63.93a3.49,3.49,0,0,0,.23.95h-.7a3,3,0,0,1-.24-1,.7.7,0,0,0-.81-.64h-.4Zm0-2.15H158c.51,0,.92-.17.92-.61s-.24-.64-.89-.64a3.47,3.47,0,0,0-.44,0Z" transform="translate(-69.5 -65.5)"/></svg>